<?xml version="1.0" standalone="no"?>
<!DOCTYPE svg PUBLIC "-//W3C//DTD SVG 20010904//EN"
 "http://www.w3.org/TR/2001/REC-SVG-20010904/DTD/svg10.dtd">
<svg version="1.0" xmlns="http://www.w3.org/2000/svg"
 width="567.786077pt" height="568.111951pt" viewBox="0 0 567.786077 568.111951"
 preserveAspectRatio="xMidYMid meet">
<metadata>
Created by potrace 1.12, written by Peter Selinger 2001-2015
</metadata>
<g transform="translate(-256.194671,824.258251) scale(0.100000,-0.100000)"
fill="#ffffff" stroke="none">
<path d="M5110 8234 c-14 -2 -63 -9 -110 -15 -237 -32 -470 -96 -720 -200
l-100 -41 0 -304 c0 -167 2 -304 5 -304 2 0 64 31 137 69 131 69 323 151 353
151 13 0 15 -99 13 -887 l-3 -887 -325 -188 c-179 -103 -347 -201 -375 -217
-27 -16 -185 -107 -350 -201 -165 -95 -342 -197 -393 -228 -51 -30 -95 -53
-97 -51 -9 10 -35 200 -44 329 -25 350 38 721 179 1051 l38 89 -292 0 -293 0
-36 -112 c-66 -203 -109 -410 -128 -622 -14 -151 -5 -538 15 -661 36 -217 69
-354 123 -515 34 -99 128 -326 143 -343 6 -7 105 49 750 421 129 75 303 175
385 222 83 48 251 145 375 217 536 309 778 448 818 471 l42 24 0 1369 0 1369
-42 -1 c-24 -1 -54 -3 -68 -5z"/>
<path d="M5580 6872 l0 -1370 148 -85 c81 -46 199 -114 262 -150 l115 -67 5
475 5 475 240 -138 c132 -76 346 -199 475 -274 129 -74 336 -194 460 -265 124
-71 353 -204 510 -295 374 -216 400 -231 405 -226 13 13 35 297 35 453 0 747
-277 1435 -792 1970 -472 491 -1127 806 -1785 861 l-83 7 0 -1371z m652 682
c118 -45 329 -154 438 -227 221 -147 415 -330 578 -547 164 -218 291 -473 368
-743 19 -67 37 -131 41 -142 5 -18 4 -18 -18 -3 -21 13 -103 61 -494 286 -33
19 -80 46 -105 60 -25 14 -166 96 -315 182 -148 86 -340 196 -425 245 -85 48
-163 95 -172 103 -17 14 -18 47 -18 419 0 341 2 403 14 403 8 0 56 -16 108
-36z"/>
<path d="M5320 5156 c-41 -24 -210 -121 -375 -216 -165 -95 -340 -196 -390
-225 -49 -29 -268 -155 -485 -281 -801 -462 -1035 -597 -1038 -599 -1 -1 23
-38 54 -81 311 -435 746 -781 1234 -979 781 -319 1655 -279 2399 111 386 203
713 485 980 847 40 54 71 100 69 101 -1 2 -138 81 -303 176 -165 95 -333 193
-374 217 l-74 43 -263 -152 c-145 -84 -264 -156 -264 -160 0 -3 99 -63 220
-133 121 -70 220 -131 220 -136 0 -15 -136 -121 -261 -204 -255 -170 -519
-280 -814 -340 -166 -33 -237 -39 -455 -39 -218 0 -289 6 -455 39 -342 69
-638 203 -930 421 -122 91 -153 120 -139 133 5 4 200 118 434 253 234 135 575
332 757 438 l333 191 212 -122 c117 -67 220 -127 228 -132 11 -6 85 32 275
142 143 83 260 156 260 161 0 6 -94 65 -210 131 -115 67 -316 182 -445 257
-129 74 -253 146 -275 158 -22 13 -42 24 -45 24 -3 0 -39 -20 -80 -44z"/>
</g>
</svg>
